<svg width="48" height="48" viewBox="0 0 48 48" fill="none" xmlns="http://www.w3.org/2000/svg">
<rect width="48" height="48" rx="24" fill="#EEEEEE"/>
<path fill-rule="evenodd" clip-rule="evenodd" d="M29.628 11.5003C27.8388 11.4847 26.115 12.1725 24.828 13.4156L24.8163 13.4271L22.8601 15.3719C22.4146 15.8148 22.4125 16.5349 22.8554 16.9803C23.2982 17.4258 24.0183 17.4279 24.4638 16.985L26.4139 15.0463C27.2713 14.221 28.418 13.7645 29.6082 13.7748C30.8011 13.7852 31.9421 14.2636 32.7856 15.1071C33.629 15.9506 34.1075 17.0916 34.1179 18.2844C34.1282 19.4741 33.6721 20.6204 32.8475 21.4777L29.4428 24.8823L29.4427 24.8825C28.9815 25.3438 28.4265 25.7006 27.8153 25.9286C27.2041 26.1566 26.551 26.2505 25.9003 26.2039C25.2496 26.1573 24.6166 25.9713 24.0441 25.6585C23.4716 25.3458 22.9731 24.9135 22.5823 24.3911C22.2061 23.8882 21.4933 23.7854 20.9904 24.1617C20.4874 24.5379 20.3846 25.2506 20.7609 25.7536C21.347 26.5372 22.0948 27.1855 22.9535 27.6547C23.8122 28.1239 24.7618 28.4028 25.7378 28.4727C26.7138 28.5426 27.6935 28.4018 28.6103 28.0598C29.5271 27.7178 30.3596 27.1827 31.0514 26.4906L34.4633 23.0788L34.4771 23.0647C35.7202 21.7777 36.408 20.0539 36.3924 18.2647C36.3769 16.4755 35.6592 14.7639 34.394 13.4987C33.1288 12.2335 31.4172 11.5158 29.628 11.5003ZM22.1549 19.3974C21.1789 19.3275 20.1992 19.4683 19.2824 19.8103C18.3657 20.1523 17.533 20.6875 16.8413 21.3795L13.4294 24.7913L13.4156 24.8054C12.1725 26.0925 11.4847 27.8162 11.5003 29.6054C11.5158 31.3947 12.2335 33.1062 13.4987 34.3714C14.7639 35.6366 16.4755 36.3543 18.2647 36.3699C20.0539 36.3854 21.7777 35.6976 23.0647 34.4545L23.0788 34.4407L25.0236 32.4959C25.4678 32.0517 25.4678 31.3316 25.0236 30.8874C24.5794 30.4433 23.8593 30.4433 23.4152 30.8874L21.4777 32.8249C20.6204 33.6495 19.4741 34.1056 18.2844 34.0953C17.0916 34.0849 15.9506 33.6065 15.1071 32.763C14.2636 31.9195 13.7852 30.7785 13.7748 29.5857C13.7645 28.396 14.2206 27.2497 15.0452 26.3924L18.45 22.9876C18.9112 22.5263 19.4662 22.1695 20.0774 21.9415C20.6886 21.7135 21.3417 21.6196 21.9924 21.6662C22.6431 21.7128 23.2761 21.8988 23.8486 22.2116C24.4211 22.5244 24.9196 22.9566 25.3104 23.479C25.6866 23.9819 26.3993 24.0847 26.9023 23.7085C27.4053 23.3322 27.5081 22.6195 27.1318 22.1165C26.5457 21.3329 25.7979 20.6846 24.9392 20.2154C24.0805 19.7463 23.1309 19.4673 22.1549 19.3974Z" fill="#333333"/>
</svg>
