<svg width="48" height="48" viewBox="0 0 48 48" fill="none" xmlns="http://www.w3.org/2000/svg">
<rect width="48" height="48" rx="24" fill="#EEEEEE"/>
<path fill-rule="evenodd" clip-rule="evenodd" d="M14.3406 16.8377C14.5244 16.4744 14.9023 16.2222 15.3333 16.2222H33.1111C33.5422 16.2222 33.9201 16.4744 34.1039 16.8378L24.2223 23.7549L14.3406 16.8377ZM14.2222 19.4674V30.6667C14.2222 31.2752 14.7248 31.7778 15.3333 31.7778H33.1111C33.7197 31.7778 34.2222 31.2752 34.2222 30.6667V19.4675L24.8595 26.0214C24.4769 26.2892 23.9677 26.2892 23.5851 26.0214L14.2222 19.4674ZM36.4444 17.3531V30.6667C36.4444 32.5025 34.947 34 33.1111 34H15.3333C13.4975 34 12 32.5025 12 30.6667V17.3333C12 15.4975 13.4975 14 15.3333 14H33.1111C34.9381 14 36.43 15.483 36.4443 17.3068C36.4447 17.3222 36.4447 17.3376 36.4444 17.3531Z" fill="#333333"/>
</svg>
