<svg width="181" height="24" viewBox="0 0 181 24" fill="none" xmlns="http://www.w3.org/2000/svg">
<path d="M175.287 18.9998C173.895 18.9998 172.663 18.7518 171.591 18.2558C170.535 17.7598 169.695 17.0478 169.071 16.1198C168.463 15.1918 168.159 14.0958 168.159 12.8318C168.159 11.4238 168.455 10.2398 169.047 9.27981C169.639 8.31981 170.423 7.59181 171.399 7.09581C172.375 6.59981 173.423 6.35181 174.543 6.35181C175.759 6.35181 176.807 6.60781 177.687 7.11981C178.583 7.61581 179.271 8.31981 179.751 9.23181C180.247 10.1438 180.495 11.2078 180.495 12.4238C180.495 12.6798 180.479 12.9758 180.447 13.3118C180.431 13.6318 180.391 13.9038 180.327 14.1278H172.479C172.575 14.4798 172.727 14.7758 172.935 15.0158C173.159 15.2398 173.447 15.4078 173.799 15.5198C174.167 15.6318 174.583 15.6878 175.047 15.6878H179.127V18.9998H175.287ZM172.335 11.7038H176.559C176.559 11.4638 176.527 11.2478 176.463 11.0558C176.399 10.8478 176.311 10.6558 176.199 10.4798C176.087 10.3038 175.951 10.1518 175.791 10.0238C175.631 9.89581 175.439 9.79981 175.215 9.73581C174.991 9.67181 174.751 9.63981 174.495 9.63981C174.159 9.63981 173.863 9.69581 173.607 9.80781C173.351 9.91981 173.135 10.0718 172.959 10.2638C172.783 10.4398 172.639 10.6558 172.527 10.9118C172.431 11.1518 172.367 11.4158 172.335 11.7038Z" fill="#333333"/>
<path d="M155.182 23.8718V20.3198H161.206C161.478 20.3198 161.694 20.2398 161.854 20.0798C162.014 19.9358 162.094 19.7438 162.094 19.5038V17.0558H161.998C161.742 17.3758 161.446 17.6638 161.11 17.9198C160.774 18.1598 160.382 18.3518 159.934 18.4958C159.502 18.6238 158.99 18.6878 158.398 18.6878C157.31 18.6878 156.35 18.4318 155.518 17.9198C154.686 17.3918 154.03 16.6798 153.55 15.7838C153.086 14.8878 152.854 13.8798 152.854 12.7598C152.854 11.6078 153.11 10.5438 153.622 9.56781C154.134 8.59181 154.886 7.81581 155.878 7.23981C156.87 6.64781 158.078 6.35181 159.502 6.35181C160.862 6.35181 162.046 6.63181 163.054 7.19181C164.062 7.75181 164.846 8.53581 165.406 9.54381C165.982 10.5358 166.27 11.7038 166.27 13.0478V20.1518C166.27 21.3038 165.934 22.2078 165.262 22.8638C164.59 23.5358 163.646 23.8718 162.43 23.8718H155.182ZM159.574 15.3038C160.054 15.3038 160.478 15.1918 160.846 14.9678C161.214 14.7278 161.502 14.4158 161.71 14.0318C161.918 13.6478 162.022 13.2238 162.022 12.7598C162.022 12.2478 161.918 11.7918 161.71 11.3918C161.502 10.9918 161.214 10.6718 160.846 10.4318C160.478 10.1918 160.054 10.0718 159.574 10.0718C159.094 10.0718 158.662 10.1918 158.278 10.4318C157.91 10.6558 157.622 10.9678 157.414 11.3678C157.206 11.7678 157.102 12.2158 157.102 12.7118C157.102 13.1918 157.206 13.6318 157.414 14.0318C157.622 14.4158 157.91 14.7278 158.278 14.9678C158.662 15.1918 159.094 15.3038 159.574 15.3038Z" fill="#333333"/>
<path d="M142.905 19.3118C141.833 19.3118 140.881 19.0398 140.049 18.4958C139.217 17.9518 138.561 17.2078 138.081 16.2638C137.617 15.3038 137.385 14.2158 137.385 12.9998C137.385 11.7198 137.665 10.5758 138.225 9.56781C138.801 8.55981 139.601 7.77581 140.625 7.21581C141.649 6.63981 142.857 6.35181 144.249 6.35181C145.609 6.35181 146.777 6.63181 147.753 7.19181C148.745 7.75181 149.513 8.51981 150.057 9.49581C150.601 10.4718 150.873 11.5918 150.873 12.8558V18.9998H146.865V17.0798H146.769C146.545 17.5118 146.257 17.8958 145.905 18.2318C145.553 18.5678 145.129 18.8318 144.633 19.0238C144.153 19.2158 143.577 19.3118 142.905 19.3118ZM144.153 15.6878C144.665 15.6878 145.105 15.5678 145.473 15.3278C145.841 15.0718 146.129 14.7278 146.337 14.2958C146.545 13.8638 146.649 13.3758 146.649 12.8318C146.649 12.2878 146.545 11.8158 146.337 11.4158C146.129 10.9998 145.841 10.6718 145.473 10.4318C145.105 10.1758 144.665 10.0478 144.153 10.0478C143.657 10.0478 143.217 10.1758 142.833 10.4318C142.465 10.6718 142.177 10.9998 141.969 11.4158C141.761 11.8158 141.657 12.2878 141.657 12.8318C141.657 13.3758 141.761 13.8638 141.969 14.2958C142.177 14.7278 142.465 15.0718 142.833 15.3278C143.217 15.5678 143.657 15.6878 144.153 15.6878Z" fill="#333333"/>
<path d="M132.352 19C131.184 19 130.264 18.672 129.592 18.016C128.936 17.344 128.608 16.432 128.608 15.28V3.68799H132.76V14.968C132.76 15.144 132.824 15.296 132.952 15.424C133.08 15.536 133.232 15.592 133.408 15.592H136.096V19H132.352ZM126.664 9.90399V6.63999H136.096V9.90399H126.664Z" fill="#333333"/>
<path d="M112.645 18.9998V11.8958C112.645 10.8398 112.901 9.89581 113.413 9.06381C113.941 8.21581 114.677 7.55181 115.621 7.07181C116.581 6.59181 117.701 6.35181 118.981 6.35181C120.261 6.35181 121.365 6.59181 122.293 7.07181C123.221 7.55181 123.933 8.21581 124.429 9.06381C124.925 9.89581 125.173 10.8398 125.173 11.8958V18.9998H120.997V12.0878C120.997 11.7198 120.909 11.3838 120.733 11.0798C120.557 10.7598 120.309 10.5038 119.989 10.3118C119.685 10.1198 119.325 10.0238 118.909 10.0238C118.509 10.0238 118.141 10.1198 117.805 10.3118C117.485 10.5038 117.237 10.7598 117.061 11.0798C116.885 11.3838 116.797 11.7198 116.797 12.0878V18.9998H112.645Z" fill="#333333"/>
<path d="M106.059 18.9999V6.63989H110.235V18.9999H106.059ZM108.147 5.29589C107.507 5.29589 106.955 5.06389 106.491 4.59989C106.043 4.13589 105.819 3.59189 105.819 2.96789C105.819 2.32789 106.043 1.78389 106.491 1.33589C106.955 0.871892 107.507 0.639893 108.147 0.639893C108.787 0.639893 109.331 0.871892 109.779 1.33589C110.243 1.78389 110.475 2.32789 110.475 2.96789C110.475 3.59189 110.243 4.13589 109.779 4.59989C109.331 5.06389 108.787 5.29589 108.147 5.29589Z" fill="#333333"/>
<path d="M96.0195 19.312C95.1875 19.312 94.4435 19.12 93.7875 18.736C93.1315 18.336 92.6595 17.752 92.3715 16.984L87.1875 2.19995H92.0355L95.7795 14.704C95.8115 14.768 95.8435 14.824 95.8755 14.872C95.9235 14.92 95.9715 14.944 96.0195 14.944C96.0835 14.944 96.1395 14.92 96.1875 14.872C96.2355 14.824 96.2675 14.768 96.2835 14.704L100.028 2.19995H104.852L99.6915 16.96C99.4035 17.744 98.9235 18.336 98.2515 18.736C97.5955 19.12 96.8515 19.312 96.0195 19.312Z" fill="#333333"/>
<path d="M75.9187 19V1.47998H80.0707V19H75.9187Z" fill="#333333"/>
<path d="M65.5381 19.3118C64.4661 19.3118 63.5141 19.0398 62.6821 18.4958C61.8501 17.9518 61.1941 17.2078 60.7141 16.2638C60.2501 15.3038 60.0181 14.2158 60.0181 12.9998C60.0181 11.7198 60.2981 10.5758 60.8581 9.56781C61.4341 8.55981 62.2341 7.77581 63.2581 7.21581C64.2821 6.63981 65.4901 6.35181 66.8821 6.35181C68.2421 6.35181 69.4101 6.63181 70.3861 7.19181C71.3781 7.75181 72.1461 8.51981 72.6901 9.49581C73.2341 10.4718 73.5061 11.5918 73.5061 12.8558V18.9998H69.4981V17.0798H69.4021C69.1781 17.5118 68.8901 17.8958 68.5381 18.2318C68.1861 18.5678 67.7621 18.8318 67.2661 19.0238C66.7861 19.2158 66.2101 19.3118 65.5381 19.3118ZM66.7861 15.6878C67.2981 15.6878 67.7381 15.5678 68.1061 15.3278C68.4741 15.0718 68.7621 14.7278 68.9701 14.2958C69.1781 13.8638 69.2821 13.3758 69.2821 12.8318C69.2821 12.2878 69.1781 11.8158 68.9701 11.4158C68.7621 10.9998 68.4741 10.6718 68.1061 10.4318C67.7381 10.1758 67.2981 10.0478 66.7861 10.0478C66.2901 10.0478 65.8501 10.1758 65.4661 10.4318C65.0981 10.6718 64.8101 10.9998 64.6021 11.4158C64.3941 11.8158 64.2901 12.2878 64.2901 12.8318C64.2901 13.3758 64.3941 13.8638 64.6021 14.2958C64.8101 14.7278 65.0981 15.0718 65.4661 15.3278C65.8501 15.5678 66.2901 15.6878 66.7861 15.6878Z" fill="#333333"/>
<path d="M51.8797 19.3119C50.5997 19.3119 49.4797 19.0639 48.5197 18.5679C47.5757 18.0719 46.8397 17.4079 46.3117 16.5759C45.7997 15.7439 45.5437 14.7999 45.5437 13.7439V6.63989H49.6957V13.5519C49.6957 13.9039 49.7837 14.2399 49.9597 14.5599C50.1357 14.8799 50.3837 15.1359 50.7037 15.3279C51.0397 15.5199 51.4077 15.6159 51.8077 15.6159C52.2237 15.6159 52.5837 15.5199 52.8877 15.3279C53.2077 15.1359 53.4557 14.8799 53.6317 14.5599C53.8077 14.2399 53.8957 13.9039 53.8957 13.5519V6.63989H58.0717V13.7439C58.0717 14.7999 57.8237 15.7439 57.3277 16.5759C56.8317 17.4079 56.1197 18.0719 55.1917 18.5679C54.2637 19.0639 53.1597 19.3119 51.8797 19.3119Z" fill="#333333"/>
<path d="M39.7266 19C38.5586 19 37.6386 18.672 36.9666 18.016C36.3106 17.344 35.9826 16.432 35.9826 15.28V3.68799H40.1346V14.968C40.1346 15.144 40.1986 15.296 40.3266 15.424C40.4546 15.536 40.6066 15.592 40.7826 15.592H43.4706V19H39.7266ZM34.0386 9.90399V6.63999H43.4706V9.90399H34.0386Z" fill="#333333"/>
<path d="M25.3857 18.9999V10.3599C25.3857 9.20789 25.7137 8.30389 26.3697 7.64789C27.0417 6.97589 27.9697 6.63989 29.1537 6.63989H32.9457V9.90389H30.4257C30.1697 9.90389 29.9617 9.98389 29.8017 10.1439C29.6417 10.3039 29.5617 10.5119 29.5617 10.7679V18.9999H25.3857Z" fill="#333333"/>
<path d="M18.8718 18.9999V6.63989H23.0478V18.9999H18.8718ZM20.9598 5.29589C20.3198 5.29589 19.7678 5.06389 19.3038 4.59989C18.8558 4.13589 18.6318 3.59189 18.6318 2.96789C18.6318 2.32789 18.8558 1.78389 19.3038 1.33589C19.7678 0.871892 20.3198 0.639893 20.9598 0.639893C21.5998 0.639893 22.1438 0.871892 22.5918 1.33589C23.0558 1.78389 23.2878 2.32789 23.2878 2.96789C23.2878 3.59189 23.0558 4.13589 22.5918 4.59989C22.1438 5.06389 21.5998 5.29589 20.9598 5.29589Z" fill="#333333"/>
<path d="M8.832 19.312C8 19.312 7.256 19.12 6.6 18.736C5.944 18.336 5.472 17.752 5.184 16.984L0 2.19995H4.848L8.592 14.704C8.624 14.768 8.656 14.824 8.688 14.872C8.736 14.92 8.784 14.944 8.832 14.944C8.896 14.944 8.952 14.92 9 14.872C9.048 14.824 9.08 14.768 9.096 14.704L12.84 2.19995H17.664L12.504 16.96C12.216 17.744 11.736 18.336 11.064 18.736C10.408 19.12 9.664 19.312 8.832 19.312Z" fill="#333333"/>
</svg>
