<svg width="48" height="48" viewBox="0 0 48 48" fill="none" xmlns="http://www.w3.org/2000/svg">
<rect width="48" height="48" rx="24" fill="#25D366"/>
<g clip-path="url(#clip0_114_22)">
<path fill-rule="evenodd" clip-rule="evenodd" d="M33.9202 14.0884C31.2885 11.4533 27.7882 10.0013 24.0588 10C16.374 10 10.1197 16.2536 10.117 23.9405C10.1156 26.3978 10.7581 28.7963 11.978 30.9101L10 38.135L17.3907 36.1964C19.4269 37.3075 21.7198 37.8924 24.0528 37.8931H24.0588C31.7423 37.8931 37.9974 31.6387 38 23.9519C38.0013 20.2265 36.5527 16.7243 33.9202 14.0891V14.0884ZM24.0588 35.5386H24.0541C21.9751 35.538 19.9356 34.9791 18.1562 33.9236L17.733 33.6723L13.3471 34.8227L14.5176 30.5464L14.2422 30.1079C13.0824 28.2629 12.4694 26.1304 12.4707 23.9412C12.4734 17.5525 17.6715 12.3544 24.0635 12.3544C27.1586 12.3557 30.0678 13.5623 32.2557 15.753C34.4437 17.9429 35.6476 20.8548 35.6463 23.9505C35.6436 30.3399 30.4455 35.538 24.0588 35.538V35.5386ZM30.4147 26.8604C30.0664 26.686 28.3538 25.8436 28.0343 25.7274C27.7147 25.611 27.4828 25.5529 27.2508 25.9018C27.0189 26.2508 26.3511 27.0356 26.1478 27.2675C25.9446 27.5002 25.7414 27.5289 25.3931 27.3544C25.0449 27.1799 23.9225 26.8123 22.5915 25.6257C21.5561 24.7019 20.8568 23.5615 20.6536 23.2125C20.4504 22.8636 20.6322 22.6751 20.806 22.5019C20.9624 22.3455 21.1543 22.0948 21.3287 21.8916C21.5033 21.6884 21.5607 21.5427 21.677 21.3107C21.7934 21.078 21.7352 20.8749 21.6483 20.7004C21.5614 20.5259 20.8649 18.8112 20.574 18.114C20.2912 17.4348 20.0039 17.5271 19.7906 17.5157C19.5874 17.5057 19.3554 17.5037 19.1228 17.5037C18.8902 17.5037 18.5131 17.5906 18.1936 17.9396C17.8741 18.2885 16.9743 19.1314 16.9743 20.8454C16.9743 22.5594 18.2224 24.2166 18.3968 24.4492C18.5713 24.6819 20.8534 28.2001 24.3476 29.7095C25.1786 30.0685 25.8276 30.283 26.3336 30.4435C27.168 30.7089 27.9273 30.6715 28.5276 30.5819C29.1968 30.4816 30.5886 29.7389 30.8787 28.9254C31.1688 28.1118 31.1688 27.4139 31.0819 27.2688C30.995 27.1238 30.7624 27.0362 30.4141 26.8618L30.4147 26.8604Z" fill="white"/>
</g>
<defs>
<clipPath id="clip0_114_22">
<rect width="28" height="28.1556" fill="white" transform="translate(10 10)"/>
</clipPath>
</defs>
</svg>
